<mxfile host="app.diagrams.net" agent="Mozilla/5.0 (Windows NT 10.0; Win64; x64) AppleWebKit/537.36 (KHTML, like Gecko) Chrome/128.0.0.0 Safari/537.36" version="24.7.14">
  <diagram name="Page-1" id="nT50-B7GOkpPItFjSZU4">
    <mxGraphModel dx="819" dy="422" grid="1" gridSize="10" guides="1" tooltips="1" connect="1" arrows="1" fold="1" page="1" pageScale="1" pageWidth="850" pageHeight="1100" math="0" shadow="0">
      <root>
        <mxCell id="0" />
        <mxCell id="1" parent="0" />
        <mxCell id="9nuPIOvAlMJZs87GBS1p-1" value="start" style="rounded=1;whiteSpace=wrap;html=1;strokeColor=default;align=center;verticalAlign=middle;fontFamily=source code pro;fontSource=https%3A%2F%2Ffonts.googleapis.com%2Fcss%3Ffamily%3Dsource%2Bcode%2Bpro;fontSize=12;fontColor=default;fillColor=default;" parent="1" vertex="1">
          <mxGeometry x="400" y="20" width="60" height="20" as="geometry" />
        </mxCell>
        <mxCell id="9nuPIOvAlMJZs87GBS1p-2" value="prompt user for college year: 1, 2, 3, or 4" style="shape=parallelogram;perimeter=parallelogramPerimeter;whiteSpace=wrap;html=1;fixedSize=1;strokeColor=default;align=center;verticalAlign=middle;fontFamily=source code pro;fontSource=https%3A%2F%2Ffonts.googleapis.com%2Fcss%3Ffamily%3Dsource%2Bcode%2Bpro;fontSize=12;fontColor=default;fillColor=default;" parent="1" vertex="1">
          <mxGeometry x="350" y="310" width="160" height="60" as="geometry" />
        </mxCell>
        <mxCell id="9nuPIOvAlMJZs87GBS1p-3" value="prompt user for their GPA" style="shape=parallelogram;perimeter=parallelogramPerimeter;whiteSpace=wrap;html=1;fixedSize=1;strokeColor=default;align=center;verticalAlign=middle;fontFamily=source code pro;fontSource=https%3A%2F%2Ffonts.googleapis.com%2Fcss%3Ffamily%3Dsource%2Bcode%2Bpro;fontSize=12;fontColor=default;fillColor=default;" parent="1" vertex="1">
          <mxGeometry x="360" y="180" width="140" height="40" as="geometry" />
        </mxCell>
        <mxCell id="9nuPIOvAlMJZs87GBS1p-4" value="initialize const double GRAD_GRADE to 2.0" style="rounded=0;whiteSpace=wrap;html=1;strokeColor=default;align=center;verticalAlign=middle;fontFamily=source code pro;fontSource=https%3A%2F%2Ffonts.googleapis.com%2Fcss%3Ffamily%3Dsource%2Bcode%2Bpro;fontSize=12;fontColor=default;fillColor=default;" parent="1" vertex="1">
          <mxGeometry x="340" y="60" width="180" height="40" as="geometry" />
        </mxCell>
        <mxCell id="9nuPIOvAlMJZs87GBS1p-5" value="initialize const int GRAD_YEAR to 4" style="rounded=0;whiteSpace=wrap;html=1;strokeColor=default;align=center;verticalAlign=middle;fontFamily=source code pro;fontSource=https%3A%2F%2Ffonts.googleapis.com%2Fcss%3Ffamily%3Dsource%2Bcode%2Bpro;fontSize=12;fontColor=default;fillColor=default;" parent="1" vertex="1">
          <mxGeometry x="360" y="120" width="140" height="40" as="geometry" />
        </mxCell>
        <mxCell id="9nuPIOvAlMJZs87GBS1p-6" value="userGrade &amp;gt;= GRAD_GRADE and userYear == GRAD_YEAR ?" style="rhombus;whiteSpace=wrap;html=1;strokeColor=default;align=center;verticalAlign=middle;fontFamily=source code pro;fontSource=https%3A%2F%2Ffonts.googleapis.com%2Fcss%3Ffamily%3Dsource%2Bcode%2Bpro;fontSize=12;fontColor=default;fillColor=default;" parent="1" vertex="1">
          <mxGeometry x="300" y="460" width="260" height="80" as="geometry" />
        </mxCell>
        <mxCell id="9nuPIOvAlMJZs87GBS1p-7" value="read input and assign it to userGrade" style="shape=parallelogram;perimeter=parallelogramPerimeter;whiteSpace=wrap;html=1;fixedSize=1;strokeColor=default;align=center;verticalAlign=middle;fontFamily=source code pro;fontSource=https%3A%2F%2Ffonts.googleapis.com%2Fcss%3Ffamily%3Dsource%2Bcode%2Bpro;fontSize=12;fontColor=default;fillColor=default;" parent="1" vertex="1">
          <mxGeometry x="360" y="240" width="140" height="50" as="geometry" />
        </mxCell>
        <mxCell id="9nuPIOvAlMJZs87GBS1p-8" value="read input and assign it to userYear" style="shape=parallelogram;perimeter=parallelogramPerimeter;whiteSpace=wrap;html=1;fixedSize=1;strokeColor=default;align=center;verticalAlign=middle;fontFamily=source code pro;fontSource=https%3A%2F%2Ffonts.googleapis.com%2Fcss%3Ffamily%3Dsource%2Bcode%2Bpro;fontSize=12;fontColor=default;fillColor=default;" parent="1" vertex="1">
          <mxGeometry x="360" y="390" width="140" height="50" as="geometry" />
        </mxCell>
        <mxCell id="9nuPIOvAlMJZs87GBS1p-12" value="end" style="rounded=1;whiteSpace=wrap;html=1;strokeColor=default;align=center;verticalAlign=middle;fontFamily=source code pro;fontSource=https%3A%2F%2Ffonts.googleapis.com%2Fcss%3Ffamily%3Dsource%2Bcode%2Bpro;fontSize=12;fontColor=default;fillColor=default;" parent="1" vertex="1">
          <mxGeometry x="400" y="600" width="60" height="20" as="geometry" />
        </mxCell>
        <mxCell id="9nuPIOvAlMJZs87GBS1p-13" value="" style="endArrow=classic;html=1;rounded=0;fontFamily=source code pro;fontSource=https%3A%2F%2Ffonts.googleapis.com%2Fcss%3Ffamily%3Dsource%2Bcode%2Bpro;fontSize=12;fontColor=default;" parent="1" edge="1">
          <mxGeometry width="50" height="50" relative="1" as="geometry">
            <mxPoint x="429.8" y="40" as="sourcePoint" />
            <mxPoint x="429.8" y="60" as="targetPoint" />
          </mxGeometry>
        </mxCell>
        <mxCell id="9nuPIOvAlMJZs87GBS1p-14" value="" style="endArrow=classic;html=1;rounded=0;fontFamily=source code pro;fontSource=https%3A%2F%2Ffonts.googleapis.com%2Fcss%3Ffamily%3Dsource%2Bcode%2Bpro;fontSize=12;fontColor=default;" parent="1" edge="1">
          <mxGeometry width="50" height="50" relative="1" as="geometry">
            <mxPoint x="429.8" y="100" as="sourcePoint" />
            <mxPoint x="429.8" y="120" as="targetPoint" />
          </mxGeometry>
        </mxCell>
        <mxCell id="9nuPIOvAlMJZs87GBS1p-15" value="" style="endArrow=classic;html=1;rounded=0;fontFamily=source code pro;fontSource=https%3A%2F%2Ffonts.googleapis.com%2Fcss%3Ffamily%3Dsource%2Bcode%2Bpro;fontSize=12;fontColor=default;" parent="1" edge="1">
          <mxGeometry width="50" height="50" relative="1" as="geometry">
            <mxPoint x="429.8" y="160" as="sourcePoint" />
            <mxPoint x="429.8" y="180" as="targetPoint" />
          </mxGeometry>
        </mxCell>
        <mxCell id="9nuPIOvAlMJZs87GBS1p-16" value="" style="endArrow=classic;html=1;rounded=0;fontFamily=source code pro;fontSource=https%3A%2F%2Ffonts.googleapis.com%2Fcss%3Ffamily%3Dsource%2Bcode%2Bpro;fontSize=12;fontColor=default;" parent="1" edge="1">
          <mxGeometry width="50" height="50" relative="1" as="geometry">
            <mxPoint x="429.8" y="220" as="sourcePoint" />
            <mxPoint x="429.8" y="240" as="targetPoint" />
          </mxGeometry>
        </mxCell>
        <mxCell id="9nuPIOvAlMJZs87GBS1p-17" value="" style="endArrow=classic;html=1;rounded=0;fontFamily=source code pro;fontSource=https%3A%2F%2Ffonts.googleapis.com%2Fcss%3Ffamily%3Dsource%2Bcode%2Bpro;fontSize=12;fontColor=default;" parent="1" edge="1">
          <mxGeometry width="50" height="50" relative="1" as="geometry">
            <mxPoint x="429.8" y="290" as="sourcePoint" />
            <mxPoint x="429.8" y="310" as="targetPoint" />
          </mxGeometry>
        </mxCell>
        <mxCell id="9nuPIOvAlMJZs87GBS1p-18" value="" style="endArrow=classic;html=1;rounded=0;fontFamily=source code pro;fontSource=https%3A%2F%2Ffonts.googleapis.com%2Fcss%3Ffamily%3Dsource%2Bcode%2Bpro;fontSize=12;fontColor=default;" parent="1" edge="1">
          <mxGeometry width="50" height="50" relative="1" as="geometry">
            <mxPoint x="429.8" y="370" as="sourcePoint" />
            <mxPoint x="429.8" y="390" as="targetPoint" />
          </mxGeometry>
        </mxCell>
        <mxCell id="9nuPIOvAlMJZs87GBS1p-19" value="" style="endArrow=classic;html=1;rounded=0;fontFamily=source code pro;fontSource=https%3A%2F%2Ffonts.googleapis.com%2Fcss%3Ffamily%3Dsource%2Bcode%2Bpro;fontSize=12;fontColor=default;" parent="1" edge="1">
          <mxGeometry width="50" height="50" relative="1" as="geometry">
            <mxPoint x="429.8" y="440" as="sourcePoint" />
            <mxPoint x="429.8" y="460" as="targetPoint" />
          </mxGeometry>
        </mxCell>
        <mxCell id="9nuPIOvAlMJZs87GBS1p-20" value="" style="endArrow=classic;html=1;rounded=0;fontFamily=source code pro;fontSource=https%3A%2F%2Ffonts.googleapis.com%2Fcss%3Ffamily%3Dsource%2Bcode%2Bpro;fontSize=12;fontColor=default;" parent="1" edge="1">
          <mxGeometry width="50" height="50" relative="1" as="geometry">
            <mxPoint x="249.8" y="500" as="sourcePoint" />
            <mxPoint x="249.8" y="520" as="targetPoint" />
          </mxGeometry>
        </mxCell>
        <mxCell id="9nuPIOvAlMJZs87GBS1p-21" value="" style="endArrow=classic;html=1;rounded=0;fontFamily=source code pro;fontSource=https%3A%2F%2Ffonts.googleapis.com%2Fcss%3Ffamily%3Dsource%2Bcode%2Bpro;fontSize=12;fontColor=default;" parent="1" edge="1">
          <mxGeometry width="50" height="50" relative="1" as="geometry">
            <mxPoint x="429.8" y="580" as="sourcePoint" />
            <mxPoint x="429.8" y="600" as="targetPoint" />
          </mxGeometry>
        </mxCell>
        <mxCell id="9nuPIOvAlMJZs87GBS1p-22" value="" style="endArrow=classic;html=1;rounded=0;fontFamily=source code pro;fontSource=https%3A%2F%2Ffonts.googleapis.com%2Fcss%3Ffamily%3Dsource%2Bcode%2Bpro;fontSize=12;fontColor=default;" parent="1" edge="1">
          <mxGeometry width="50" height="50" relative="1" as="geometry">
            <mxPoint x="609.89" y="500" as="sourcePoint" />
            <mxPoint x="609.89" y="520" as="targetPoint" />
          </mxGeometry>
        </mxCell>
        <mxCell id="9nuPIOvAlMJZs87GBS1p-23" value="" style="endArrow=none;html=1;rounded=0;fontFamily=source code pro;fontSource=https%3A%2F%2Ffonts.googleapis.com%2Fcss%3Ffamily%3Dsource%2Bcode%2Bpro;fontSize=12;fontColor=default;" parent="1" edge="1">
          <mxGeometry width="50" height="50" relative="1" as="geometry">
            <mxPoint x="250" y="500" as="sourcePoint" />
            <mxPoint x="300" y="499.8" as="targetPoint" />
          </mxGeometry>
        </mxCell>
        <mxCell id="fDov6ZUNdrdFR0xWEoXJ-2" value="false" style="edgeLabel;html=1;align=center;verticalAlign=middle;resizable=0;points=[];strokeColor=default;fontFamily=source code pro;fontSource=https%3A%2F%2Ffonts.googleapis.com%2Fcss%3Ffamily%3Dsource%2Bcode%2Bpro;fontSize=12;fontColor=default;fillColor=default;" vertex="1" connectable="0" parent="9nuPIOvAlMJZs87GBS1p-23">
          <mxGeometry x="-0.2643" y="1" relative="1" as="geometry">
            <mxPoint x="5" y="1" as="offset" />
          </mxGeometry>
        </mxCell>
        <mxCell id="9nuPIOvAlMJZs87GBS1p-24" value="" style="endArrow=none;html=1;rounded=0;fontFamily=source code pro;fontSource=https%3A%2F%2Ffonts.googleapis.com%2Fcss%3Ffamily%3Dsource%2Bcode%2Bpro;fontSize=12;fontColor=default;" parent="1" edge="1">
          <mxGeometry width="50" height="50" relative="1" as="geometry">
            <mxPoint x="560" y="499.89" as="sourcePoint" />
            <mxPoint x="610" y="500.09" as="targetPoint" />
          </mxGeometry>
        </mxCell>
        <mxCell id="fDov6ZUNdrdFR0xWEoXJ-1" value="true" style="edgeLabel;html=1;align=center;verticalAlign=middle;resizable=0;points=[];strokeColor=default;fontFamily=source code pro;fontSource=https%3A%2F%2Ffonts.googleapis.com%2Fcss%3Ffamily%3Dsource%2Bcode%2Bpro;fontSize=12;fontColor=default;fillColor=default;" vertex="1" connectable="0" parent="9nuPIOvAlMJZs87GBS1p-24">
          <mxGeometry x="0.1071" y="1" relative="1" as="geometry">
            <mxPoint x="-2" y="1" as="offset" />
          </mxGeometry>
        </mxCell>
        <mxCell id="9nuPIOvAlMJZs87GBS1p-25" value="" style="endArrow=none;html=1;rounded=0;fontFamily=source code pro;fontSource=https%3A%2F%2Ffonts.googleapis.com%2Fcss%3Ffamily%3Dsource%2Bcode%2Bpro;fontSize=12;fontColor=default;" parent="1" edge="1">
          <mxGeometry width="50" height="50" relative="1" as="geometry">
            <mxPoint x="250" y="580" as="sourcePoint" />
            <mxPoint x="430" y="580" as="targetPoint" />
          </mxGeometry>
        </mxCell>
        <mxCell id="9nuPIOvAlMJZs87GBS1p-26" value="" style="endArrow=none;html=1;rounded=0;fontFamily=source code pro;fontSource=https%3A%2F%2Ffonts.googleapis.com%2Fcss%3Ffamily%3Dsource%2Bcode%2Bpro;fontSize=12;fontColor=default;" parent="1" edge="1">
          <mxGeometry width="50" height="50" relative="1" as="geometry">
            <mxPoint x="430" y="580" as="sourcePoint" />
            <mxPoint x="610" y="580" as="targetPoint" />
          </mxGeometry>
        </mxCell>
        <mxCell id="9nuPIOvAlMJZs87GBS1p-27" value="" style="endArrow=none;html=1;rounded=0;fontFamily=source code pro;fontSource=https%3A%2F%2Ffonts.googleapis.com%2Fcss%3Ffamily%3Dsource%2Bcode%2Bpro;fontSize=12;fontColor=default;" parent="1" edge="1">
          <mxGeometry width="50" height="50" relative="1" as="geometry">
            <mxPoint x="609.89" y="580" as="sourcePoint" />
            <mxPoint x="609.89" y="560" as="targetPoint" />
          </mxGeometry>
        </mxCell>
        <mxCell id="9nuPIOvAlMJZs87GBS1p-28" value="" style="endArrow=none;html=1;rounded=0;fontFamily=source code pro;fontSource=https%3A%2F%2Ffonts.googleapis.com%2Fcss%3Ffamily%3Dsource%2Bcode%2Bpro;fontSize=12;fontColor=default;" parent="1" edge="1">
          <mxGeometry width="50" height="50" relative="1" as="geometry">
            <mxPoint x="249.79999999999995" y="580" as="sourcePoint" />
            <mxPoint x="249.79999999999995" y="560" as="targetPoint" />
          </mxGeometry>
        </mxCell>
        <mxCell id="9nuPIOvAlMJZs87GBS1p-29" value="display &quot;More school for you&quot;" style="shape=parallelogram;perimeter=parallelogramPerimeter;whiteSpace=wrap;html=1;fixedSize=1;strokeColor=default;align=center;verticalAlign=middle;fontFamily=source code pro;fontSource=https%3A%2F%2Ffonts.googleapis.com%2Fcss%3Ffamily%3Dsource%2Bcode%2Bpro;fontSize=12;fontColor=default;fillColor=default;" parent="1" vertex="1">
          <mxGeometry x="180" y="520" width="140" height="40" as="geometry" />
        </mxCell>
        <mxCell id="9nuPIOvAlMJZs87GBS1p-30" value="display &quot;You will be graduating this year&quot;" style="shape=parallelogram;perimeter=parallelogramPerimeter;whiteSpace=wrap;html=1;fixedSize=1;strokeColor=default;align=center;verticalAlign=middle;fontFamily=source code pro;fontSource=https%3A%2F%2Ffonts.googleapis.com%2Fcss%3Ffamily%3Dsource%2Bcode%2Bpro;fontSize=12;fontColor=default;fillColor=default;" parent="1" vertex="1">
          <mxGeometry x="520" y="520" width="180" height="40" as="geometry" />
        </mxCell>
      </root>
    </mxGraphModel>
  </diagram>
</mxfile>
